<?xml version="1.0" encoding="UTF-8" standalone="no"?>
<!DOCTYPE svg PUBLIC "-//W3C//DTD SVG 1.1//EN" "http://www.w3.org/Graphics/SVG/1.1/DTD/svg11.dtd">
<!-- Generado por Microsoft Visio, SVG Export 08_esterilizador.svg Esterilizador -->
<svg xmlns="http://www.w3.org/2000/svg" xmlns:xlink="http://www.w3.org/1999/xlink" xmlns:ev="http://www.w3.org/2001/xml-events"
		xmlns:v="http://schemas.microsoft.com/visio/2003/SVGExtensions/" width="2.5in" height="3.30587in" viewBox="0 0 180 238.023"
		xml:space="preserve" color-interpolation-filters="sRGB" class="st3">
	<v:documentProperties v:langID="9226" v:metric="true" v:viewMarkup="false">
		<v:userDefs>
			<v:ud v:nameU="msvNoAutoConnect" v:val="VT0(1):26"/>
		</v:userDefs>
	</v:documentProperties>

	<style type="text/css">
	<![CDATA[
		.st1 {fill:#ffffff}
		.st2 {stroke:#000000;stroke-linecap:round;stroke-linejoin:round;stroke-width:0.75}
		.st3 {fill:none;fill-rule:evenodd;font-size:12px;overflow:visible;stroke-linecap:square;stroke-miterlimit:3}
	]]>
	</style>

	<g v:mID="10" v:index="8" v:groupContext="foregroundPage">
		<v:userDefs>
			<v:ud v:nameU="PEHideTags"/>
		</v:userDefs>
		<title>Esterilizador</title>
		<v:pageProperties v:drawingScale="0.0393701" v:pageScale="0.0393701" v:drawingUnits="24" v:shadowOffsetX="8.50394"
				v:shadowOffsetY="-8.50394"/>
		<v:layer v:name="Equipo" v:index="0"/>
		<g id="shape1-1" v:mID="1" v:groupContext="shape" v:layerMember="0" transform="translate(56.4803,-53.5327)">
			<title>Autoclave</title>
			<v:custProps>
				<v:cp v:nameU="SubType" v:lbl="Tipo de autoclave" v:type="1" v:format="Pala;Helicoidal;Propulsor" v:langID="3082"
						v:val="VT4(Pala)"/>
				<v:cp v:nameU="SubType2" v:lbl="Con motor" v:type="3" v:langID="3082" v:val="VT0(1):5"/>
				<v:cp v:nameU="Description" v:lbl="Descripción" v:type="0" v:sortKey="0" v:langID="3082"/>
				<v:cp v:nameU="Material" v:lbl="Material" v:type="0" v:sortKey="1" v:langID="3082"/>
				<v:cp v:nameU="Manufacturer" v:lbl="Fabricante" v:type="0" v:sortKey="2" v:langID="3082"/>
				<v:cp v:nameU="Model" v:lbl="Modelo" v:type="0" v:sortKey="3" v:langID="3082"/>
			</v:custProps>
			<v:userDefs>
				<v:ud v:nameU="SubType" v:val="VT0(0):26"/>
				<v:ud v:nameU="SubType2" v:val="VT0(1):5"/>
				<v:ud v:nameU="WatchCHX1" v:val="VT0(0.35433070866142):24"/>
				<v:ud v:nameU="WatchCHY1" v:val="VT0(1.5354330708661):24"/>
				<v:ud v:nameU="TextCH" v:prompt="Determines text control handle visibility." v:val="VT0(5):26"/>
				<v:ud v:nameU="visVersion" v:val="VT0(15):26"/>
				<v:ud v:nameU="SOLSH" v:val="VT4({D7D7DB7E-3668-43e5-AF97-97F58AB229A5})"/>
				<v:ud v:nameU="ShapeClass" v:val="VT4(Equipo)"/>
				<v:ud v:nameU="PEComponentTag" v:val="VT4(E-0)"/>
				<v:ud v:nameU="PETagNumber"/>
				<v:ud v:nameU="PETagFormat" v:prompt="E-0" v:val="VT4(Equipo)"/>
				<v:ud v:nameU="PEHideTag"/>
				<v:ud v:nameU="PEPageHideTags" v:val="VT0(0):26"/>
				<v:ud v:nameU="PELayout" v:val="VT0(31):26"/>
				<v:ud v:nameU="CPMSetList" v:prompt="Description,Material,Manufacturer,Model" v:val="VT4(Equipo)"/>
				<v:ud v:nameU="WatchCHX1" v:prompt="" v:val="VT0(0.46555118110236):1"/>
				<v:ud v:nameU="WatchCHY1" v:prompt="" v:val="VT0(2.1423583874642):1"/>
			</v:userDefs>
			<path d="M0 221.26 L0 159.86 A41.8996 41.8996 0 0 1 67.04 159.86 L67.04 221.26 A41.8996 41.8996 0 0 1 0 221.26 ZM-0 190.56
						 A4.46922 4.46922 -180 0 0 -4.47 195.03 L-4.47 221.26 A44.6047 44.6047 -180 0 0 71.51 221.26 L71.51 195.03
						 A4.46922 4.46922 -180 0 0 67.04 190.56 L67.04 221.26 A41.8996 41.8996 0 0 1 0 221.26 L0 190.56 ZM26.82 95.64
						 L26.82 71.91 L40.22 71.91 L40.22 95.64 L26.82 95.64 Z" class="st1"/>
			<path d="M0 221.26 L0 159.86 A41.8996 41.8996 0 0 1 67.04 159.86 L67.04 221.26 A41.8996 41.8996 0 0 1 0 221.26"
					class="st2"/>
			<path d="M-0 190.56 A4.46922 4.46922 -180 0 0 -4.47 195.03 L-4.47 221.26 A44.6047 44.6047 -180 0 0 71.51 221.26 L71.51
						 195.03 A4.46922 4.46922 -180 0 0 67.04 190.56 L67.04 221.26 A41.8996 41.8996 0 0 1 0 221.26 L0 190.56"
					class="st2"/>
			<path d="M16.76 190.56 L16.76 204.8 A31.9647 31.9647 -180 0 0 50.28 204.8 L50.28 190.56" class="st2"/>
			<path d="M33.52 209.55 L33.52 143.1" class="st2"/>
			<path d="M33.52 143.1 L33.52 95.64" class="st2"/>
			<path d="M26.82 95.64 L26.82 71.91 L40.22 71.91 L40.22 95.64 L26.82 95.64" class="st2"/>
			<path d="M22.35 89.71 L44.69 89.71" class="st2"/>
			<path d="M22.35 77.84 L44.69 77.84" class="st2"/>
		</g>
	</g>
</svg>
