<?xml version="1.0" encoding="UTF-8" standalone="no"?>
<!DOCTYPE svg PUBLIC "-//W3C//DTD SVG 1.1//EN" "http://www.w3.org/Graphics/SVG/1.1/DTD/svg11.dtd">
<!-- Generado por Microsoft Visio, SVG Export 08_esterilizador.svg Esterilizador -->
<svg xmlns="http://www.w3.org/2000/svg" xmlns:xlink="http://www.w3.org/1999/xlink" xmlns:ev="http://www.w3.org/2001/xml-events"
		xmlns:v="http://schemas.microsoft.com/visio/2003/SVGExtensions/" width="2.5in" height="3.30587in" viewBox="0 0 180 238.023"
		xml:space="preserve" color-interpolation-filters="sRGB" class="st3">
	<v:documentProperties v:langID="9226" v:metric="true" v:viewMarkup="false">
		<v:userDefs>
			<v:ud v:nameU="msvNoAutoConnect" v:val="VT0(1):26"/>
		</v:userDefs>
	</v:documentProperties>

	<style type="text/css">
	<![CDATA[
		.st1 {fill:#ffffff}
		.st2 {stroke:#000000;stroke-linecap:round;stroke-linejoin:round;stroke-width:4.5}
		.st3 {fill:none;fill-rule:evenodd;font-size:12px;overflow:visible;stroke-linecap:square;stroke-miterlimit:3}
	]]>
	</style>

	<g v:mID="10" v:index="8" v:groupContext="foregroundPage">
		<v:userDefs>
			<v:ud v:nameU="PEHideTags"/>
		</v:userDefs>
		<title>Esterilizador</title>
		<v:pageProperties v:drawingScale="0.0393701" v:pageScale="0.0393701" v:drawingUnits="24" v:shadowOffsetX="8.50394"
				v:shadowOffsetY="-8.50394"/>
		<v:layer v:name="Equipo" v:index="0"/>
		<g id="shape1-1" v:mID="1" v:groupContext="shape" v:layerMember="0" transform="translate(47.7414,-18)">
			<title>Autoclave</title>
			<v:custProps>
				<v:cp v:nameU="SubType" v:lbl="Tipo de autoclave" v:type="1" v:format="Pala;Helicoidal;Propulsor" v:langID="3082"
						v:val="VT4(Pala)"/>
				<v:cp v:nameU="SubType2" v:lbl="Con motor" v:type="3" v:langID="3082" v:val="VT0(1):5"/>
				<v:cp v:nameU="Description" v:lbl="Descripción" v:type="0" v:sortKey="0" v:langID="3082"/>
				<v:cp v:nameU="Material" v:lbl="Material" v:type="0" v:sortKey="1" v:langID="3082"/>
				<v:cp v:nameU="Manufacturer" v:lbl="Fabricante" v:type="0" v:sortKey="2" v:langID="3082"/>
				<v:cp v:nameU="Model" v:lbl="Modelo" v:type="0" v:sortKey="3" v:langID="3082"/>
			</v:custProps>
			<v:userDefs>
				<v:ud v:nameU="SubType" v:val="VT0(0):26"/>
				<v:ud v:nameU="SubType2" v:val="VT0(1):5"/>
				<v:ud v:nameU="WatchCHX1" v:val="VT0(0.35433070866142):24"/>
				<v:ud v:nameU="WatchCHY1" v:val="VT0(1.5354330708661):24"/>
				<v:ud v:nameU="TextCH" v:prompt="Determines text control handle visibility." v:val="VT0(5):26"/>
				<v:ud v:nameU="visVersion" v:val="VT0(15):26"/>
				<v:ud v:nameU="SOLSH" v:val="VT4({D7D7DB7E-3668-43e5-AF97-97F58AB229A5})"/>
				<v:ud v:nameU="ShapeClass" v:val="VT4(Equipo)"/>
				<v:ud v:nameU="PEComponentTag" v:val="VT4(E-0)"/>
				<v:ud v:nameU="PETagNumber"/>
				<v:ud v:nameU="PETagFormat" v:prompt="E-0" v:val="VT4(Equipo)"/>
				<v:ud v:nameU="PEHideTag"/>
				<v:ud v:nameU="PEPageHideTags" v:val="VT0(0):26"/>
				<v:ud v:nameU="PELayout" v:val="VT0(31):26"/>
				<v:ud v:nameU="CPMSetList" v:prompt="Description,Material,Manufacturer,Model" v:val="VT4(Equipo)"/>
				<v:ud v:nameU="WatchCHX1" v:prompt="" v:val="VT0(0.59202755905512):1"/>
				<v:ud v:nameU="WatchCHY1" v:prompt="" v:val="VT0(2.7243732982234):1"/>
			</v:userDefs>
			<path d="M0 216.71 L0 138.63 A53.2825 53.2825 0 0 1 85.25 138.63 L85.25 216.71 A53.2825 53.2825 0 0 1 -0 216.71 ZM0 177.67
						 A5.68337 5.68337 -180 0 0 -5.68 183.35 L-5.68 216.71 A56.7225 56.7225 -180 0 0 90.94 216.71 L90.94 183.35
						 A5.68337 5.68337 -180 0 0 85.25 177.67 L85.25 216.71 A53.2825 53.2825 0 0 1 -0 216.71 L0 177.67 ZM34.1 56.96
						 L34.1 26.78 L51.15 26.78 L51.15 56.96 L34.1 56.96 Z" class="st1"/>
			<path d="M0 216.71 L0 138.63 A53.2825 53.2825 0 0 1 85.25 138.63 L85.25 216.71 A53.2825 53.2825 0 0 1 -0 216.71"
					class="st2"/>
			<path d="M0 177.67 A5.68337 5.68337 -180 0 0 -5.68 183.35 L-5.68 216.71 A56.7225 56.7225 -180 0 0 90.94 216.71 L90.94
						 183.35 A5.68337 5.68337 -180 0 0 85.25 177.67 L85.25 216.71 A53.2825 53.2825 0 0 1 -0 216.71 L0 177.67"
					class="st2"/>
			<path d="M21.31 177.67 L21.31 195.77 A40.6485 40.6485 -180 0 0 63.94 195.77 L63.94 177.67" class="st2"/>
			<path d="M42.63 201.81 L42.63 117.31" class="st2"/>
			<path d="M42.63 117.31 L42.63 56.96" class="st2"/>
			<path d="M34.1 56.96 L34.1 26.78 L51.15 26.78 L51.15 56.96 L34.1 56.96" class="st2"/>
			<path d="M28.42 49.41 L56.83 49.41" class="st2"/>
			<path d="M28.42 34.32 L56.83 34.32" class="st2"/>
		</g>
	</g>
</svg>
